<?xml version="1.0" encoding="UTF-8"?><svg id="Layer_2" xmlns="http://www.w3.org/2000/svg" width="1015" height="1010" viewBox="0 0 1015 1010"><defs><style>.cls-1,.cls-2,.cls-3,.cls-4,.cls-5,.cls-6{stroke:#000;stroke-miterlimit:10;}.cls-7,.cls-6{fill:#fff;}.cls-8{fill:#63d6e3;}.cls-9{fill:#0a1c60;}.cls-10{fill:#92f8ff;}.cls-11{fill:#97293a;}.cls-2{fill:#e19090;}.cls-2,.cls-3,.cls-4,.cls-5,.cls-6{stroke-width:10px;}.cls-3{fill:#d7d22e;}.cls-4{fill:#cc3a49;}.cls-5{fill:#e9f32a;}</style></defs><g><circle class="cls-2" cx="498" cy="517.5" r="478.5"/><g><g><path class="cls-6" d="M821.44,297.73s111.58-34.99,170.2,42.55c0,0,20.8,48.22-8.51,83.21,0,0-26.48,52.01-92.67,50.12,0,0,21.75,86.99-84.16,77.54,0,0-24.58,125.76-128.6,48.22,0,0,39.71-43.5,86.99-103.07,0,0,52.01-60.52,56.73-198.57Z"/><path class="cls-6" d="M202.9,312.61s-115.46-35-176.13,42.56c0,0-21.53,48.24,8.81,83.24,0,0,27.4,52.02,95.89,50.13,0,0-22.51,87.02,87.09,77.56,0,0,25.44,125.8,133.08,48.24,0,0-41.1-43.51-90.02-103.1,0,0-53.82-60.54-58.71-198.63Z"/><path class="cls-4" d="M504.55,279.9s49.46-114.01,172.95-114.01c0,0,115.81-4.56,158.09,114.01,0,0,56.61,121.18-109.53,278.2,0,0-213.04,184.4-221.51,190.91,0,0-69.06-71.03-181.77-155.07,0,0-194.8-151.8-142.03-316.64,0,0,26.08-95.82,157.03-111.43,0,0,119.22-7.79,166.78,114.04Z"/><path class="cls-1" d="M758.79,435.69s43.07-22.17,33.43-101.19c0,0-3.26,43.37-33.43,50.59,0,0,22.83-29.39,10.3-58.3,0,0-1.93,34.95-28.91,39.64,0,0,6.75-8.17,3.85-24.39,0,0-1.19,11.63-22.28,14.09,0,0,14.2,67.02,37.03,79.55Z"/><path class="cls-1" d="M249.42,448.02s-37.95-22.17-29.46-101.19c0,0,2.87,43.37,29.46,50.59,0,0-20.12-29.39-9.08-58.3,0,0,1.7,34.95,25.47,39.64,0,0-5.94-8.17-3.4-24.39,0,0,1.05,11.63,19.63,14.09,0,0-12.51,67.02-32.63,79.55Z"/><ellipse class="cls-7" cx="655.89" cy="430.8" rx="101.31" ry="97.08"/><ellipse class="cls-7" cx="351.63" cy="435.36" rx="101.31" ry="97.08"/><ellipse class="cls-8" cx="360.2" cy="428.92" rx="85.69" ry="82.11"/><ellipse class="cls-8" cx="645.61" cy="425.01" rx="85.69" ry="82.11"/><ellipse class="cls-10" cx="361.29" cy="435.41" rx="76.16" ry="72.98"/><ellipse class="cls-10" cx="642.91" cy="430.52" rx="76.16" ry="72.98"/><ellipse class="cls-9" cx="360.48" cy="447.76" rx="54.34" ry="58.94"/><ellipse class="cls-9" cx="643.1" cy="441.92" rx="54.34" ry="58.94"/><circle class="cls-7" cx="322.96" cy="412.23" r="23.45"/><ellipse class="cls-7" cx="611.3" cy="403.86" rx="25.05" ry="25.31"/><circle class="cls-7" cx="385.83" cy="435.36" r="12.7"/><circle class="cls-7" cx="668.59" cy="428.85" r="12.7"/><polygon class="cls-7" points="343.16 466.31 349.68 472.82 358.8 471.52 354.24 479.34 358.15 487.16 349.68 485.85 343.16 492.1 341.86 483.9 333.94 479.21 342.51 475.43 343.16 466.31"/><polygon class="cls-7" points="632.98 459.02 639.5 465.53 648.62 464.23 644.06 472.05 647.97 479.87 639.5 478.56 632.98 484.81 631.68 476.61 623.77 471.92 632.33 468.14 632.98 459.02"/><path class="cls-11" d="M476.41,505.82s-2.47,37.91,28.85,40.38c31.32,2.47,34.42-40.38,34.42-40.38,0,0,8.48-11.54,14.64,0,0,0,2.04,40.38-28.46,50.27,0,0-20.74,9.07-37.15,0,0,0-27.96-9.89-26.31-51.1,0,0,10.71-9.07,14.01,.82Z"/></g><path class="cls-3" d="M311.24,106.02s62.12,57.33,186.39,42.35c0,0,185.73-7.82,224.07-54.08,0,0-2.24-29.97-63.25-36.48,0,0,40.24,41.05-119.77,54.73,0,0-214.32,1.31-193.12-30.94,0,0-27.05,.97-34.32,24.43Z"/><path class="cls-5" d="M317.61,107.94l29.32-21.5s17.59-14.33,47.56-20.2c0,0,130.59-29.34,255.54-3.27,0,0,45.46,2.62,66.96,34.54,0,0,19.69-7.43,9.19-39.55,0,0-18.96-35.38-69.13-39.29,0,0-121.83-13.68-272.98,12.38,0,0-64.5,9.77-87.95,39.74,0,0-3.26,30.62,21.5,37.14Z"/></g><path class="cls-4" d="M36.55,644.53H959.45s-63.95,321.47-461.45,351.47c0,0-333.39,14.07-461.45-351.47Z"/><path class="cls-4" d="M38.55,649.53s26.95,68.47,101.95,68.47c0,0,94.27-6.93,95.14-68.47"/><path class="cls-4" d="M240.03,649.48s26.95,68.47,101.95,68.47c0,0,94.27-6.93,95.14-68.47"/><path class="cls-4" d="M442.23,649.33s26.95,68.47,101.95,68.47c0,0,94.27-6.93,95.14-68.47"/><path class="cls-4" d="M643.23,649.33s26.95,68.47,101.95,68.47c0,0,94.27-6.93,95.14-68.47"/><path class="cls-4" d="M141.03,722.5s26.95,68.47,101.95,68.47c0,0,94.27-6.93,95.14-68.47"/><path class="cls-4" d="M344.16,722.74s26.95,68.47,101.95,68.47c0,0,94.27-6.93,95.14-68.47"/><path class="cls-4" d="M237.9,794.84s26.95,68.47,101.95,68.47c0,0,94.27-6.93,95.14-68.47"/><path class="cls-4" d="M437.12,795.99s26.95,68.47,101.95,68.47c0,0,94.27-6.93,95.14-68.47"/><path class="cls-4" d="M639.07,796.39s26.95,68.47,101.95,68.47c0,0,94.27-6.93,95.14-68.47"/><path class="cls-4" d="M339.15,868.68s26.95,68.47,101.95,68.47c0,0,94.27-6.93,95.14-68.47"/><path class="cls-4" d="M540.15,869.68s26.95,68.47,101.95,68.47c0,0,94.27-6.93,95.14-68.47"/><path class="cls-4" d="M844.89,649.33s14.91,56.69,93.26,55.18"/><path class="cls-4" d="M540.39,722.83s26.95,68.47,101.95,68.47c0,0,94.27-6.93,95.14-68.47"/><path class="cls-4" d="M744.13,722.5s26.68,69.43,92.02,68.47c0,0,78.31-2.97,94.33-68.47"/><path class="cls-4" d="M842.9,796.39s4.47,33.2,18.53,32.4"/><path class="cls-4" d="M133.95,722.83s-1.95,47.84-37.2,47.5"/><path class="cls-4" d="M230.9,795.39s2.46,53.12-72.97,52.36"/><path class="cls-4" d="M333.42,867.68s-9.88,49.46-88.9,50.39"/><path class="cls-4" d="M434.99,936.98s-27.18,39.02-95.83,32.02"/><path class="cls-4" d="M741.71,869.68s18.79,26.32,45.79,26.32"/><path class="cls-4" d="M441.1,936.14s26.89,56.73,100.15,54.3c0,0,98.88-11.91,98.07-47.67"/><path class="cls-4" d="M645.5,943s6.07,19.95,27.53,15.48"/></g><path class="cls-2" d="M76.76,736.21H925.88s-53.8,97.99-113.59,140.89l-623.32,5.74s-89.96-86.43-112.21-146.63Z"/><g><path class="cls-7" d="M199.6,770.79h36.77c8.01,0,14.01,1.9,17.99,5.71,3.99,3.81,5.98,9.23,5.98,16.26s-2.17,12.88-6.52,16.94c-4.35,4.07-10.98,6.1-19.9,6.1h-12.11v26.56h-22.22v-71.58Zm22.22,30.52h5.42c4.26,0,7.26-.74,8.98-2.22,1.73-1.48,2.59-3.38,2.59-5.69s-.75-4.15-2.25-5.71c-1.5-1.56-4.31-2.34-8.45-2.34h-6.3v15.97Z"/><path class="cls-7" d="M269.13,806.63c0-11.69,3.25-20.78,9.77-27.29,6.51-6.51,15.58-9.77,27.2-9.77s21.09,3.2,27.54,9.59,9.67,15.36,9.67,26.88c0,8.37-1.41,15.23-4.22,20.58-2.82,5.36-6.88,9.52-12.21,12.5s-11.96,4.47-19.9,4.47-14.75-1.29-20.04-3.86c-5.29-2.57-9.58-6.64-12.87-12.21-3.29-5.57-4.93-12.53-4.93-20.9Zm22.12,.1c0,7.23,1.34,12.42,4.03,15.58,2.69,3.16,6.34,4.74,10.96,4.74s8.43-1.55,11.04-4.64c2.6-3.09,3.91-8.64,3.91-16.65,0-6.74-1.36-11.66-4.08-14.77-2.72-3.11-6.4-4.66-11.06-4.66s-8.04,1.58-10.74,4.74c-2.7,3.16-4.05,8.38-4.05,15.67Z"/><path class="cls-7" d="M355.51,842.37v-71.58h36.87c6.84,0,12.06,.59,15.67,1.76s6.53,3.34,8.74,6.52c2.21,3.17,3.32,7.04,3.32,11.6,0,3.97-.85,7.4-2.54,10.28s-4.02,5.22-6.99,7.01c-1.89,1.14-4.48,2.08-7.77,2.83,2.63,.88,4.55,1.76,5.76,2.64,.81,.59,1.99,1.84,3.54,3.76,1.54,1.92,2.58,3.41,3.1,4.45l10.71,20.74h-24.99l-11.82-21.88c-1.5-2.83-2.83-4.67-4-5.52-1.6-1.11-3.4-1.66-5.42-1.66h-1.95v29.05h-22.22Zm22.22-42.58h9.33c1.01,0,2.96-.33,5.86-.98,1.46-.29,2.66-1.04,3.59-2.25,.93-1.2,1.39-2.59,1.39-4.15,0-2.31-.73-4.08-2.2-5.32-1.46-1.24-4.22-1.86-8.25-1.86h-9.72v14.55Z"/><path class="cls-7" d="M427.09,770.79h67.24v17.68h-22.56v53.91h-22.12v-53.91h-22.56v-17.68Z"/><path class="cls-7" d="M504.44,770.79h54.69v15.38h-32.47v12.5h27.73v14.45h-27.73v29.25h-22.22v-71.58Z"/><path class="cls-7" d="M568.25,806.63c0-11.69,3.25-20.78,9.77-27.29,6.51-6.51,15.58-9.77,27.2-9.77s21.09,3.2,27.54,9.59,9.67,15.36,9.67,26.88c0,8.37-1.41,15.23-4.22,20.58-2.82,5.36-6.88,9.52-12.21,12.5s-11.96,4.47-19.9,4.47-14.75-1.29-20.04-3.86c-5.29-2.57-9.58-6.64-12.87-12.21s-4.93-12.53-4.93-20.9Zm22.12,.1c0,7.23,1.34,12.42,4.03,15.58,2.69,3.16,6.34,4.74,10.96,4.74s8.43-1.55,11.04-4.64c2.6-3.09,3.91-8.64,3.91-16.65,0-6.74-1.36-11.66-4.08-14.77-2.72-3.11-6.4-4.66-11.06-4.66s-8.04,1.58-10.74,4.74c-2.7,3.16-4.05,8.38-4.05,15.67Z"/><path class="cls-7" d="M654.34,770.79h22.12v53.96h34.52v17.63h-56.64v-71.58Z"/><path class="cls-7" d="M721.92,770.79h22.17v71.58h-22.17v-71.58Z"/><path class="cls-7" d="M757.17,806.63c0-11.69,3.25-20.78,9.77-27.29,6.51-6.51,15.58-9.77,27.2-9.77s21.09,3.2,27.54,9.59,9.67,15.36,9.67,26.88c0,8.37-1.41,15.23-4.22,20.58-2.82,5.36-6.88,9.52-12.21,12.5s-11.96,4.47-19.9,4.47-14.75-1.29-20.04-3.86c-5.29-2.57-9.58-6.64-12.87-12.21s-4.93-12.53-4.93-20.9Zm22.12,.1c0,7.23,1.34,12.42,4.03,15.58,2.69,3.16,6.34,4.74,10.96,4.74s8.43-1.55,11.04-4.64c2.6-3.09,3.91-8.64,3.91-16.65,0-6.74-1.36-11.66-4.08-14.77-2.72-3.11-6.4-4.66-11.06-4.66s-8.04,1.58-10.74,4.74c-2.7,3.16-4.05,8.38-4.05,15.67Z"/></g></svg>