<?xml version="1.0" encoding="UTF-8"?><svg id="Layer_2" xmlns="http://www.w3.org/2000/svg" width="1138" height="938.5" viewBox="0 0 1138 938.5"><defs><style>.cls-1,.cls-2,.cls-3,.cls-4,.cls-5,.cls-6,.cls-7,.cls-8{stroke-miterlimit:10;}.cls-1,.cls-2,.cls-3,.cls-4,.cls-5,.cls-6,.cls-8{stroke:#000;}.cls-9,.cls-3{fill:#fff;}.cls-10{fill:#63d6e3;}.cls-11{fill:#0a1c60;}.cls-12{fill:#92f8ff;}.cls-2{fill:#cc3a49;}.cls-2,.cls-3,.cls-4,.cls-5{stroke-width:10px;}.cls-4,.cls-8{fill:none;}.cls-6,.cls-7{fill:#f91536;stroke-width:6px;}.cls-7{stroke:#cc1f38;}.cls-8{stroke-width:9px;}</style></defs><path class="cls-2" d="M566.06,170.76S631.44,20.06,794.66,20.06c0,0,153.08-6.03,208.96,150.7,0,0,74.82,160.17-144.77,367.71,0,0-281.59,243.73-292.79,252.33,0,0-91.28-93.88-240.26-204.97,0,0-257.48-200.65-187.73-418.51,0,0,34.47-126.65,207.55-147.29,0,0,157.57-10.3,220.44,150.73Z"/><path class="cls-1" d="M905.18,282.43s56.93-29.3,44.19-133.75c0,0-4.31,57.32-44.19,66.87,0,0,30.18-38.85,13.62-77.06,0,0-2.55,46.2-38.21,52.4,0,0,8.92-10.8,5.1-32.23,0,0-1.58,15.38-29.45,18.63,0,0,18.77,88.59,48.95,105.15Z"/><path class="cls-1" d="M231.91,298.73s-50.16-29.3-38.94-133.75c0,0,3.8,57.32,38.94,66.87,0,0-26.59-38.85-12-77.06,0,0,2.24,46.2,33.67,52.4,0,0-7.86-10.8-4.49-32.23,0,0,1.39,15.38,25.95,18.63,0,0-16.54,88.59-43.13,105.15Z"/><ellipse class="cls-9" cx="769.16" cy="275.97" rx="133.91" ry="128.31"/><ellipse class="cls-9" cx="367.01" cy="282" rx="133.91" ry="128.31"/><ellipse class="cls-10" cx="378.33" cy="273.49" rx="113.26" ry="108.53"/><ellipse class="cls-10" cx="755.57" cy="268.31" rx="113.26" ry="108.53"/><ellipse class="cls-12" cx="379.77" cy="282.07" rx="100.67" ry="96.46"/><ellipse class="cls-12" cx="752.01" cy="275.6" rx="100.67" ry="96.46"/><ellipse class="cls-11" cx="378.71" cy="298.38" rx="71.83" ry="77.91"/><ellipse class="cls-11" cx="752.25" cy="290.66" rx="71.83" ry="77.91"/><circle class="cls-9" cx="329.12" cy="251.43" r="31"/><ellipse class="cls-9" cx="710.22" cy="240.37" rx="33.1" ry="33.45"/><circle class="cls-9" cx="412.22" cy="282" r="16.79"/><circle class="cls-9" cx="785.95" cy="273.39" r="16.79"/><polygon class="cls-9" points="355.81 322.9 364.43 331.51 376.48 329.79 370.45 340.12 375.62 350.46 364.43 348.74 355.81 357 354.09 346.15 343.63 339.95 354.95 334.96 355.81 322.9"/><polygon class="cls-9" points="738.89 313.27 747.5 321.88 759.56 320.16 753.53 330.49 758.69 340.82 747.5 339.1 738.89 347.36 737.17 336.52 726.71 330.31 738.03 325.32 738.89 313.27"/><rect class="cls-3" x="134.81" y="494.26" width="873.2" height="168.78"/><path class="cls-4" d="M165.96,404.28S19,444.77,16,547.77c0,0,4.95,51.77,122.98,27.88"/><line class="cls-4" x1="459.78" y1="693.03" x2="459.78" y2="896.47"/><line class="cls-4" x1="686.43" y1="692.79" x2="686.43" y2="896.23"/><ellipse class="cls-5" cx="443.5" cy="905.77" rx="36.5" ry="18"/><ellipse class="cls-5" cx="701.5" cy="905.77" rx="36.5" ry="18"/><ellipse class="cls-5" cx="159.5" cy="578.27" rx="21.5" ry="11.5"/><ellipse class="cls-5" cx="149.5" cy="556.77" rx="5.5" ry="10"/><path class="cls-4" d="M1000.22,347.77s119.35,51.3,121.79,181.79c0,0-4.02,65.59-99.87,35.33"/><ellipse class="cls-5" cx="1005.46" cy="568.2" rx="17.46" ry="14.57"/><ellipse class="cls-5" cx="1013.58" cy="540.96" rx="4.47" ry="12.67"/><g><path d="M312.46,550.74v-8.94h20.51v18.31c-3.93,2.68-7.4,4.5-10.42,5.46s-6.6,1.45-10.74,1.45c-5.1,0-9.25-.87-12.47-2.61-3.21-1.74-5.7-4.33-7.47-7.76-1.77-3.44-2.65-7.38-2.65-11.84,0-4.69,.97-8.76,2.9-12.23s4.77-6.1,8.5-7.9c2.91-1.39,6.83-2.08,11.75-2.08s8.29,.43,10.65,1.29c2.35,.86,4.31,2.19,5.86,4s2.72,4.1,3.5,6.87l-12.8,2.29c-.53-1.62-1.42-2.86-2.68-3.72s-2.87-1.29-4.82-1.29c-2.91,0-5.23,1.01-6.96,3.03s-2.59,5.22-2.59,9.59c0,4.65,.87,7.97,2.62,9.96,1.75,1.99,4.18,2.99,7.31,2.99,1.48,0,2.9-.21,4.25-.64s2.89-1.16,4.63-2.2v-4.04h-8.88Z"/><path d="M341.02,566.3v-42.95h22.12c4.1,0,7.24,.35,9.4,1.05s3.92,2.01,5.24,3.91,1.99,4.22,1.99,6.96c0,2.38-.51,4.44-1.52,6.17s-2.41,3.13-4.19,4.2c-1.13,.68-2.69,1.25-4.66,1.7,1.58,.53,2.73,1.06,3.46,1.58,.49,.35,1.2,1.1,2.12,2.26,.93,1.15,1.55,2.04,1.86,2.67l6.43,12.45h-15l-7.09-13.12c-.9-1.7-1.7-2.8-2.4-3.31-.96-.66-2.04-1-3.25-1h-1.17v17.43h-13.33Zm13.33-25.55h5.6c.61,0,1.78-.2,3.52-.59,.88-.18,1.6-.62,2.15-1.35s.83-1.55,.83-2.49c0-1.39-.44-2.45-1.32-3.19s-2.53-1.11-4.95-1.11h-5.83v8.73Z"/><path d="M414.44,523.35h13.24v25.59c0,2.54-.4,4.93-1.19,7.19-.79,2.25-2.03,4.23-3.72,5.92-1.69,1.69-3.46,2.87-5.32,3.56-2.58,.96-5.67,1.43-9.29,1.43-2.09,0-4.37-.15-6.84-.44-2.47-.29-4.54-.87-6.2-1.74-1.66-.87-3.18-2.1-4.56-3.7s-2.32-3.25-2.83-4.95c-.82-2.73-1.23-5.15-1.23-7.26v-25.59h13.24v26.2c0,2.34,.65,4.17,1.95,5.49,1.3,1.32,3.1,1.98,5.41,1.98s4.08-.65,5.38-1.95c1.3-1.3,1.95-3.14,1.95-5.52v-26.2Z"/><path d="M436.56,523.35h12.39l16.17,23.76v-23.76h12.51v42.95h-12.51l-16.08-23.58v23.58h-12.48v-42.95Z"/><path d="M486.63,523.35h19.72c3.89,0,7.03,.53,9.42,1.58,2.39,1.05,4.37,2.57,5.93,4.54s2.7,4.27,3.4,6.88,1.05,5.39,1.05,8.32c0,4.59-.52,8.15-1.57,10.68-1.04,2.53-2.5,4.65-4.35,6.36s-3.85,2.85-5.98,3.41c-2.91,.78-5.55,1.17-7.91,1.17h-19.72v-42.95Zm13.27,9.73v23.47h3.25c2.77,0,4.75-.31,5.92-.92s2.09-1.69,2.75-3.22,1-4.02,1-7.46c0-4.55-.74-7.67-2.23-9.35s-3.95-2.52-7.38-2.52h-3.31Z"/><path d="M533.12,523.35h13.27v32.37h20.71v10.58h-33.98v-42.95Z"/><path d="M585.03,523.35h41.02v9.17h-18.11v6.83h16.46v8.76h-16.46v8.47h18.66v9.73h-31.14v-7.71h-12.75l-2.84,7.71h-13.36l18.52-42.95Zm7.47,8.7l-6.18,16.76h9.14v-16.76h-2.96Z"/><path d="M654.73,550.74v-8.94h20.51v18.31c-3.93,2.68-7.4,4.5-10.42,5.46s-6.6,1.45-10.74,1.45c-5.1,0-9.25-.87-12.47-2.61-3.21-1.74-5.7-4.33-7.47-7.76-1.77-3.44-2.65-7.38-2.65-11.84,0-4.69,.97-8.76,2.9-12.23s4.77-6.1,8.5-7.9c2.91-1.39,6.83-2.08,11.75-2.08s8.29,.43,10.65,1.29c2.35,.86,4.31,2.19,5.86,4s2.72,4.1,3.5,6.87l-12.8,2.29c-.53-1.62-1.42-2.86-2.68-3.72s-2.87-1.29-4.82-1.29c-2.91,0-5.23,1.01-6.96,3.03s-2.59,5.22-2.59,9.59c0,4.65,.87,7.97,2.62,9.96,1.75,1.99,4.18,2.99,7.31,2.99,1.48,0,2.9-.21,4.25-.64s2.89-1.16,4.63-2.2v-4.04h-8.88Z"/><path d="M704.71,550.74v-8.94h20.51v18.31c-3.93,2.68-7.4,4.5-10.42,5.46s-6.6,1.45-10.74,1.45c-5.1,0-9.25-.87-12.47-2.61-3.21-1.74-5.7-4.33-7.47-7.76-1.77-3.44-2.65-7.38-2.65-11.84,0-4.69,.97-8.76,2.9-12.23s4.77-6.1,8.5-7.9c2.91-1.39,6.83-2.08,11.75-2.08s8.29,.43,10.65,1.29c2.35,.86,4.31,2.19,5.86,4s2.72,4.1,3.5,6.87l-12.8,2.29c-.53-1.62-1.42-2.86-2.68-3.72s-2.87-1.29-4.82-1.29c-2.91,0-5.23,1.01-6.96,3.03s-2.59,5.22-2.59,9.59c0,4.65,.87,7.97,2.62,9.96,1.75,1.99,4.18,2.99,7.31,2.99,1.48,0,2.9-.21,4.25-.64s2.89-1.16,4.63-2.2v-4.04h-8.88Z"/><path d="M733.07,523.35h35.57v9.17h-22.27v6.83h20.65v8.76h-20.65v8.47h22.91v9.73h-36.21v-42.95Z"/><path d="M776.52,523.35h12.39l16.17,23.76v-23.76h12.51v42.95h-12.51l-16.08-23.58v23.58h-12.48v-42.95Z"/><path d="M826.38,523.35h35.57v9.17h-22.27v6.83h20.65v8.76h-20.65v8.47h22.91v9.73h-36.21v-42.95Z"/><path d="M437.51,595.35h13.3v42.95h-13.3v-42.95Z"/><path d="M460.42,595.35h12.39l16.17,23.76v-23.76h12.51v42.95h-12.51l-16.08-23.58v23.58h-12.48v-42.95Z"/><path d="M510.49,595.35h19.72c3.89,0,7.03,.53,9.42,1.58s4.37,2.57,5.93,4.54c1.56,1.97,2.7,4.27,3.4,6.88s1.05,5.39,1.05,8.32c0,4.59-.52,8.15-1.57,10.68s-2.5,4.65-4.35,6.36c-1.86,1.71-3.85,2.85-5.98,3.41-2.91,.78-5.55,1.17-7.91,1.17h-19.72v-42.95Zm13.27,9.73v23.47h3.25c2.77,0,4.75-.31,5.92-.92s2.09-1.69,2.75-3.22c.66-1.53,1-4.02,1-7.46,0-4.55-.74-7.67-2.23-9.35-1.48-1.68-3.95-2.52-7.38-2.52h-3.31Z"/><path d="M557.04,595.35h13.27v15.03h14.5v-15.03h13.33v42.95h-13.33v-17.37h-14.5v17.37h-13.27v-42.95Z"/><path d="M605.29,616.86c0-7.01,1.95-12.47,5.86-16.38,3.91-3.91,9.35-5.86,16.32-5.86s12.66,1.92,16.52,5.76,5.8,9.21,5.8,16.13c0,5.02-.84,9.14-2.53,12.35s-4.13,5.71-7.32,7.5-7.17,2.68-11.94,2.68-8.85-.77-12.03-2.31-5.75-3.98-7.72-7.32c-1.97-3.34-2.96-7.52-2.96-12.54Zm13.27,.06c0,4.34,.81,7.45,2.42,9.35s3.8,2.84,6.58,2.84,5.06-.93,6.62-2.78c1.56-1.86,2.34-5.19,2.34-9.99,0-4.04-.82-7-2.45-8.86s-3.84-2.8-6.64-2.8-4.82,.95-6.45,2.84c-1.62,1.89-2.43,5.03-2.43,9.4Z"/><path d="M656.94,595.35h13.27v32.37h20.71v10.58h-33.98v-42.95Z"/><path d="M697.14,595.35h19.72c3.89,0,7.03,.53,9.42,1.58s4.37,2.57,5.93,4.54c1.56,1.97,2.7,4.27,3.4,6.88s1.05,5.39,1.05,8.32c0,4.59-.52,8.15-1.57,10.68s-2.5,4.65-4.35,6.36c-1.86,1.71-3.85,2.85-5.98,3.41-2.91,.78-5.55,1.17-7.91,1.17h-19.72v-42.95Zm13.27,9.73v23.47h3.25c2.77,0,4.75-.31,5.92-.92s2.09-1.69,2.75-3.22c.66-1.53,1-4.02,1-7.46,0-4.55-.74-7.67-2.23-9.35-1.48-1.68-3.95-2.52-7.38-2.52h-3.31Z"/></g><path class="cls-6" d="M600,430.66s12.66,39.46,37.97,28c0,0,25.31-12.73-13.92-50.91"/><polyline class="cls-7" points="615 425.75 622.96 435.29 626.97 440.27 630.98 444.43 637 452.75"/><path class="cls-8" d="M517.59,383.75s13.98,53.99,60.52,53.99c0,0,47.22,2.89,46.88-53.99"/></svg>