<?xml version="1.0" encoding="UTF-8"?>
<svg id="Layer_2" data-name="Layer 2" xmlns="http://www.w3.org/2000/svg" viewBox="0 0 1138 938.5">
  <defs>
    <style>
      .cls-1, .cls-2, .cls-3, .cls-4, .cls-5, .cls-6, .cls-7, .cls-8 {
        stroke-miterlimit: 10;
      }

      .cls-1, .cls-2, .cls-3, .cls-4, .cls-5, .cls-6, .cls-8 {
        stroke: #000;
      }

      .cls-9 {
        letter-spacing: -.02em;
      }

      .cls-10, .cls-3 {
        fill: #fff;
      }

      .cls-11 {
        fill: #63d6e3;
      }

      .cls-12 {
        fill: #0a1c60;
      }

      .cls-13 {
        fill: #92f8ff;
      }

      .cls-2 {
        fill: #cc3a49;
      }

      .cls-2, .cls-3, .cls-4, .cls-5 {
        stroke-width: 10px;
      }

      .cls-14 {
        font-family: Arial-Black, 'Arial Black';
        font-size: 60px;
      }

      .cls-4, .cls-8 {
        fill: none;
      }

      .cls-6, .cls-7 {
        fill: #f91536;
        stroke-width: 6px;
      }

      .cls-7 {
        stroke: #cc1f38;
      }

      .cls-8 {
        stroke-width: 9px;
      }
    </style>
  </defs>
  <path class="cls-2" d="M566.06,170.76S631.44,20.06,794.66,20.06c0,0,153.08-6.03,208.96,150.7,0,0,74.82,160.17-144.77,367.71,0,0-281.59,243.73-292.79,252.33,0,0-91.28-93.88-240.26-204.97,0,0-257.48-200.65-187.73-418.51,0,0,34.47-126.65,207.55-147.29,0,0,157.57-10.3,220.44,150.73Z"/>
  <path class="cls-1" d="M905.18,282.43s56.93-29.3,44.19-133.75c0,0-4.31,57.32-44.19,66.87,0,0,30.18-38.85,13.62-77.06,0,0-2.55,46.2-38.21,52.4,0,0,8.92-10.8,5.1-32.23,0,0-1.58,15.38-29.45,18.63,0,0,18.77,88.59,48.95,105.15Z"/>
  <path class="cls-1" d="M231.91,298.73s-50.16-29.3-38.94-133.75c0,0,3.8,57.32,38.94,66.87,0,0-26.59-38.85-12-77.06,0,0,2.24,46.2,33.67,52.4,0,0-7.86-10.8-4.49-32.23,0,0,1.39,15.38,25.95,18.63,0,0-16.54,88.59-43.13,105.15Z"/>
  <ellipse class="cls-10" cx="769.16" cy="275.97" rx="133.91" ry="128.31"/>
  <ellipse class="cls-10" cx="367.01" cy="282" rx="133.91" ry="128.31"/>
  <ellipse class="cls-11" cx="378.33" cy="273.49" rx="113.26" ry="108.53"/>
  <ellipse class="cls-11" cx="755.57" cy="268.31" rx="113.26" ry="108.53"/>
  <ellipse class="cls-13" cx="379.77" cy="282.07" rx="100.67" ry="96.46"/>
  <ellipse class="cls-13" cx="752.01" cy="275.6" rx="100.67" ry="96.46"/>
  <ellipse class="cls-12" cx="378.71" cy="298.38" rx="71.83" ry="77.91"/>
  <ellipse class="cls-12" cx="752.25" cy="290.66" rx="71.83" ry="77.91"/>
  <circle class="cls-10" cx="329.12" cy="251.43" r="31"/>
  <ellipse class="cls-10" cx="710.22" cy="240.37" rx="33.1" ry="33.45"/>
  <circle class="cls-10" cx="412.22" cy="282" r="16.79"/>
  <circle class="cls-10" cx="785.95" cy="273.39" r="16.79"/>
  <polygon class="cls-10" points="355.81 322.9 364.43 331.51 376.48 329.79 370.45 340.12 375.62 350.46 364.43 348.74 355.81 357 354.09 346.15 343.63 339.95 354.95 334.96 355.81 322.9"/>
  <polygon class="cls-10" points="738.89 313.27 747.5 321.88 759.56 320.16 753.53 330.49 758.69 340.82 747.5 339.1 738.89 347.36 737.17 336.52 726.71 330.31 738.03 325.32 738.89 313.27"/>
  <rect class="cls-3" x="134.81" y="494.26" width="873.2" height="168.78"/>
  <path class="cls-4" d="M165.96,404.28S19,444.77,16,547.77c0,0,4.95,51.77,122.98,27.88"/>
  <line class="cls-4" x1="459.78" y1="693.03" x2="459.78" y2="896.47"/>
  <line class="cls-4" x1="686.43" y1="692.79" x2="686.43" y2="896.23"/>
  <ellipse class="cls-5" cx="443.5" cy="905.77" rx="36.5" ry="18"/>
  <ellipse class="cls-5" cx="701.5" cy="905.77" rx="36.5" ry="18"/>
  <ellipse class="cls-5" cx="159.5" cy="578.27" rx="21.5" ry="11.5"/>
  <ellipse class="cls-5" cx="149.5" cy="556.77" rx="5.5" ry="10"/>
  <path class="cls-4" d="M1000.22,347.77s119.35,51.3,121.79,181.79c0,0-4.02,65.59-99.87,35.33"/>
  <ellipse class="cls-5" cx="1005.46" cy="568.2" rx="17.46" ry="14.57"/>
  <ellipse class="cls-5" cx="1013.58" cy="540.96" rx="4.47" ry="12.67"/>
  <text class="cls-14" transform="translate(263.13 566.3)"><tspan x="0" y="0">G</tspan><tspan class="cls-9" x="49.98" y="0">R</tspan><tspan x="95.62" y="0">UNDLÆGGENDE </tspan><tspan x="169.45" y="72">INDHOLD</tspan></text>
  <path class="cls-6" d="M600,430.66s12.66,39.46,37.97,28c0,0,25.31-12.73-13.92-50.91"/>
  <polyline class="cls-7" points="615 425.75 622.96 435.29 626.97 440.27 630.98 444.43 637 452.75"/>
  <path class="cls-8" d="M517.59,383.75s13.98,53.99,60.52,53.99c0,0,47.22,2.89,46.88-53.99"/>
</svg>