<?xml version="1.0" encoding="UTF-8"?>
<svg id="Layer_1" data-name="Layer 1" xmlns="http://www.w3.org/2000/svg" viewBox="0 0 475 474">
  <defs>
    <style>
      .cls-1 {
        fill: none;
        stroke: #000;
        stroke-miterlimit: 10;
        stroke-width: 24px;
      }
    </style>
  </defs>
  <path d="M222.92,196.46c1.14-20.68-9.35-40.67-26.21-52.43-16.93-11.81-39.45-12.21-57.88-3.88-20.31,9.18-30.77,29.5-37.26,49.75-6.92,21.61-9.22,45.02-6.69,67.57,4.51,40.25,23.58,86.67,63.71,102.98,40.77,16.57,81.84-13.72,97.16-50.68,21.05-50.8,2.67-106.03,8.36-158.71,.58-5.38-5.01-10-10-10-5.89,0-9.42,4.61-10,10-4.5,41.69,6.92,83.82,.19,125.33-2.85,17.58-8.8,35.16-21.06,48.47-10.45,11.34-24.84,20.05-40.63,20.22-34.77,.37-55.63-37.47-63.57-66.52-5.01-18.36-6.35-37.56-4.16-56.47,2.04-17.61,7.14-37.98,18.07-52.33,10.32-13.55,29.11-18.91,45.1-13.09s25.77,23.09,24.86,39.78c-.71,12.86,19.3,12.82,20,0h0Z"/>
  <path d="M258.44,160.1c29.75-6.73,68.69-15.12,91.96,10.98,10.36,11.63,10.23,27.84,5.86,41.97-2.13,6.88-5.16,14.28-9.71,19.95-5.31,6.63-13.73,8.08-21.56,10-20.92,5.11-42.2,7.99-63.72,8.79-4.94,.18-9.23,3.66-9.82,8.67-.54,4.52,2.2,10.11,7.16,10.97,15.88,2.77,31.95,3.98,48.06,3.03,13.28-.79,28.76-4.75,41.13,1.92,24.61,13.28,26.01,45.56,27.06,70.03,.55,12.82,20.56,12.89,20,0-1.34-31.18-5.03-65.98-33.22-85.03-13.76-9.3-29.86-9.14-45.74-7.67-17.38,1.61-34.74,1.44-51.97-1.56-.89,6.55-1.77,13.1-2.66,19.64,22.6-.84,45.17-3.82,67.17-9.05,10.56-2.51,21.31-5.15,29.51-12.72,7.46-6.88,11.99-16.67,15.61-25.96,7.3-18.75,8.31-41.21-2.7-58.77-9.59-15.31-26.14-25.35-43.48-29.51-24.66-5.92-50.08-.43-74.27,5.04-12.55,2.84-7.24,22.13,5.32,19.29h0Z"/>
  <circle class="cls-1" cx="238.5" cy="238.5" r="219.5"/>
</svg>