<?xml version="1.0" encoding="UTF-8"?>
<svg id="Layer_1" data-name="Layer 1" xmlns="http://www.w3.org/2000/svg" viewBox="0 0 3601 120">
  <defs>
    <style>
      .cls-1 {
        fill: #cd3a49;
      }
    </style>
  </defs>
  <path class="cls-1" d="M84.93,66.67H1623.89c20.78,0,41.61,.38,62.39,0,.91-.02,1.82,0,2.73,0,7.72,0,7.73-12,0-12H915.83c-77.92,0-155.83,0-233.75,0-72.16,0-144.31,0-216.47,0H150.04c-20.78,0-41.61-.38-62.39,0-.91,.02-1.82,0-2.73,0-7.72,0-7.73,12,0,12h0Z"/>
  <path class="cls-1" d="M1855.48,65.86h1538.96c20.78,0,41.61,.38,62.39,0,.91-.02,1.82,0,2.73,0,7.72,0,7.73-12,0-12h-773.17c-77.92,0-155.83,0-233.75,0-72.16,0-144.31,0-216.47,0h-315.57c-20.78,0-41.61-.38-62.39,0-.91,.02-1.82,0-2.73,0-7.72,0-7.73,12,0,12h0Z"/>
  <path class="cls-1" d="M1771.65,39s5.92-13.63,20.68-13.63c0,0,13.85-.55,18.91,13.63,0,0,6.77,14.49-13.1,33.27,0,0-25.48,22.05-26.49,22.83,0,0-8.26-8.49-21.74-18.54,0,0-23.3-18.15-16.98-37.87,0,0,3.12-11.46,18.78-13.33,0,0,14.26-.93,19.94,13.64Z"/>
</svg>