<?xml version="1.0" encoding="UTF-8"?>
<svg id="Layer_1" data-name="Layer 1" xmlns="http://www.w3.org/2000/svg" viewBox="0 0 1843.5 101.5">
  <defs>
    <style>
      .cls-1 {
        fill: #cd3a49;
        stroke: #000;
        stroke-miterlimit: 10;
        stroke-width: 3px;
      }
    </style>
  </defs>
  <path class="cls-1" d="M63.34,33.4s5.92-13.63,20.68-13.63c0,0,13.85-.55,18.91,13.63,0,0,6.77,14.49-13.1,33.27,0,0-25.48,22.05-26.49,22.83,0,0-8.26-8.49-21.74-18.54,0,0-23.3-18.15-16.98-37.87,0,0,3.12-11.46,18.78-13.33,0,0,14.26-.93,19.94,13.64Z"/>
  <path class="cls-1" d="M384.38,33.47s5.92-13.63,20.68-13.63c0,0,13.85-.55,18.91,13.63,0,0,6.77,14.49-13.1,33.27,0,0-25.48,22.05-26.49,22.83,0,0-8.26-8.49-21.74-18.54,0,0-23.3-18.15-16.98-37.87,0,0,3.12-11.46,18.78-13.33,0,0,14.26-.93,19.94,13.64Z"/>
  <path class="cls-1" d="M277.38,33.47s5.92-13.63,20.68-13.63c0,0,13.85-.55,18.91,13.63,0,0,6.77,14.49-13.1,33.27,0,0-25.48,22.05-26.49,22.83,0,0-8.26-8.49-21.74-18.54,0,0-23.3-18.15-16.98-37.87,0,0,3.12-11.46,18.78-13.33,0,0,14.26-.93,19.94,13.64Z"/>
  <path class="cls-1" d="M170.38,33.47s5.92-13.63,20.68-13.63c0,0,13.85-.55,18.91,13.63,0,0,6.77,14.49-13.1,33.27,0,0-25.48,22.05-26.49,22.83,0,0-8.26-8.49-21.74-18.54,0,0-23.3-18.15-16.98-37.87,0,0,3.12-11.46,18.78-13.33,0,0,14.26-.93,19.94,13.64Z"/>
  <path class="cls-1" d="M491.38,33.27s5.92-13.63,20.68-13.63c0,0,13.85-.55,18.91,13.63,0,0,6.77,14.49-13.1,33.27,0,0-25.48,22.05-26.49,22.83,0,0-8.26-8.49-21.74-18.54,0,0-23.3-18.15-16.98-37.87,0,0,3.12-11.46,18.78-13.33,0,0,14.26-.93,19.94,13.64Z"/>
  <path class="cls-1" d="M812.42,33.34s5.92-13.63,20.68-13.63c0,0,13.85-.55,18.91,13.63,0,0,6.77,14.49-13.1,33.27,0,0-25.48,22.05-26.49,22.83,0,0-8.26-8.49-21.74-18.54,0,0-23.3-18.15-16.98-37.87,0,0,3.12-11.46,18.78-13.33,0,0,14.26-.93,19.94,13.64Z"/>
  <path class="cls-1" d="M705.42,33.34s5.92-13.63,20.68-13.63c0,0,13.85-.55,18.91,13.63,0,0,6.77,14.49-13.1,33.27,0,0-25.48,22.05-26.49,22.83,0,0-8.26-8.49-21.74-18.54,0,0-23.3-18.15-16.98-37.87,0,0,3.12-11.46,18.78-13.33,0,0,14.26-.93,19.94,13.64Z"/>
  <path class="cls-1" d="M598.42,33.34s5.92-13.63,20.68-13.63c0,0,13.85-.55,18.91,13.63,0,0,6.77,14.49-13.1,33.27,0,0-25.48,22.05-26.49,22.83,0,0-8.26-8.49-21.74-18.54,0,0-23.3-18.15-16.98-37.87,0,0,3.12-11.46,18.78-13.33,0,0,14.26-.93,19.94,13.64Z"/>
  <path class="cls-1" d="M928.36,33.34s5.92-13.63,20.68-13.63c0,0,13.85-.55,18.91,13.63,0,0,6.77,14.49-13.1,33.27,0,0-25.48,22.05-26.49,22.83,0,0-8.26-8.49-21.74-18.54,0,0-23.3-18.15-16.98-37.87,0,0,3.12-11.46,18.78-13.33,0,0,14.26-.93,19.94,13.64Z"/>
  <path class="cls-1" d="M1249.4,33.41s5.92-13.63,20.68-13.63c0,0,13.85-.55,18.91,13.63,0,0,6.77,14.49-13.1,33.27,0,0-25.48,22.05-26.49,22.83,0,0-8.26-8.49-21.74-18.54,0,0-23.3-18.15-16.98-37.87,0,0,3.12-11.46,18.78-13.33,0,0,14.26-.93,19.94,13.64Z"/>
  <path class="cls-1" d="M1142.4,33.41s5.92-13.63,20.68-13.63c0,0,13.85-.55,18.91,13.63,0,0,6.77,14.49-13.1,33.27,0,0-25.48,22.05-26.49,22.83,0,0-8.26-8.49-21.74-18.54,0,0-23.3-18.15-16.98-37.87,0,0,3.12-11.46,18.78-13.33,0,0,14.26-.93,19.94,13.64Z"/>
  <path class="cls-1" d="M1035.4,33.41s5.92-13.63,20.68-13.63c0,0,13.85-.55,18.91,13.63,0,0,6.77,14.49-13.1,33.27,0,0-25.48,22.05-26.49,22.83,0,0-8.26-8.49-21.74-18.54,0,0-23.3-18.15-16.98-37.87,0,0,3.12-11.46,18.78-13.33,0,0,14.26-.93,19.94,13.64Z"/>
  <path class="cls-1" d="M1356.4,33.21s5.92-13.63,20.68-13.63c0,0,13.85-.55,18.91,13.63,0,0,6.77,14.49-13.1,33.27,0,0-25.48,22.05-26.49,22.83,0,0-8.26-8.49-21.74-18.54,0,0-23.3-18.15-16.98-37.87,0,0,3.12-11.46,18.78-13.33,0,0,14.26-.93,19.94,13.64Z"/>
  <path class="cls-1" d="M1677.43,33.28s5.92-13.63,20.68-13.63c0,0,13.85-.55,18.91,13.63,0,0,6.77,14.49-13.1,33.27,0,0-25.48,22.05-26.49,22.83,0,0-8.26-8.49-21.74-18.54,0,0-23.3-18.15-16.98-37.87,0,0,3.12-11.46,18.78-13.33,0,0,14.26-.93,19.94,13.64Z"/>
  <path class="cls-1" d="M1570.43,33.28s5.92-13.63,20.68-13.63c0,0,13.85-.55,18.91,13.63,0,0,6.77,14.49-13.1,33.27,0,0-25.48,22.05-26.49,22.83,0,0-8.26-8.49-21.74-18.54,0,0-23.3-18.15-16.98-37.87,0,0,3.12-11.46,18.78-13.33,0,0,14.26-.93,19.94,13.64Z"/>
  <path class="cls-1" d="M1463.43,33.28s5.92-13.63,20.68-13.63c0,0,13.85-.55,18.91,13.63,0,0,6.77,14.49-13.1,33.27,0,0-25.48,22.05-26.49,22.83,0,0-8.26-8.49-21.74-18.54,0,0-23.3-18.15-16.98-37.87,0,0,3.12-11.46,18.78-13.33,0,0,14.26-.93,19.94,13.64Z"/>
  <path class="cls-1" d="M1788.39,33.34s5.92-13.63,20.68-13.63c0,0,13.85-.55,18.91,13.63,0,0,6.77,14.49-13.1,33.27,0,0-25.48,22.05-26.49,22.83,0,0-8.26-8.49-21.74-18.54,0,0-23.3-18.15-16.98-37.87,0,0,3.12-11.46,18.78-13.33,0,0,14.26-.93,19.94,13.64Z"/>
</svg>