<?xml version="1.0" encoding="UTF-8"?><svg id="Layer_2" xmlns="http://www.w3.org/2000/svg" width="1138" height="938.5" viewBox="0 0 1138 938.5"><defs><style>.cls-1,.cls-2,.cls-3,.cls-4,.cls-5,.cls-6,.cls-7{stroke:#000;stroke-miterlimit:10;}.cls-8,.cls-4,.cls-7{fill:#fff;}.cls-9{fill:#63d6e3;}.cls-10{fill:#0a1c60;}.cls-11{fill:#92f8ff;}.cls-2{fill:#cc3a49;}.cls-2,.cls-3,.cls-4,.cls-5,.cls-6{stroke-width:10px;}.cls-3{fill:#ff1d3e;}.cls-5{fill:none;}.cls-7{stroke-width:6px;}</style></defs><g><path class="cls-2" d="M563.06,166.74S628.44,16.05,791.66,16.05c0,0,153.08-6.03,208.96,150.7,0,0,74.82,160.17-144.77,367.71,0,0-281.59,243.73-292.79,252.33,0,0-91.28-93.88-240.26-204.97,0,0-257.48-200.65-187.73-418.51,0,0,34.47-126.65,207.55-147.29,0,0,157.57-10.3,220.44,150.73Z"/><path class="cls-1" d="M902.17,278.41s56.93-29.3,44.19-133.75c0,0-4.31,57.32-44.19,66.87,0,0,30.18-38.85,13.62-77.06,0,0-2.55,46.2-38.21,52.4,0,0,8.92-10.8,5.1-32.23,0,0-1.58,15.38-29.45,18.63,0,0,18.77,88.59,48.95,105.15Z"/><path class="cls-1" d="M228.91,294.71s-50.16-29.3-38.94-133.75c0,0,3.8,57.32,38.94,66.87,0,0-26.59-38.85-12-77.06,0,0,2.24,46.2,33.67,52.4,0,0-7.86-10.8-4.49-32.23,0,0,1.39,15.38,25.95,18.63,0,0-16.54,88.59-43.13,105.15Z"/><ellipse class="cls-8" cx="766.16" cy="271.95" rx="133.91" ry="128.31"/><ellipse class="cls-8" cx="364.01" cy="277.98" rx="133.91" ry="128.31"/><ellipse class="cls-9" cx="375.33" cy="269.47" rx="113.26" ry="108.53"/><ellipse class="cls-9" cx="752.57" cy="264.29" rx="113.26" ry="108.53"/><ellipse class="cls-11" cx="376.77" cy="278.05" rx="100.67" ry="96.46"/><ellipse class="cls-11" cx="749" cy="271.58" rx="100.67" ry="96.46"/><ellipse class="cls-10" cx="375.71" cy="294.36" rx="71.83" ry="77.91"/><ellipse class="cls-10" cx="749.25" cy="286.64" rx="71.83" ry="77.91"/><circle class="cls-8" cx="326.12" cy="247.41" r="31"/><ellipse class="cls-8" cx="707.22" cy="236.35" rx="33.1" ry="33.45"/><circle class="cls-8" cx="409.22" cy="277.98" r="16.79"/><circle class="cls-8" cx="782.95" cy="269.37" r="16.79"/><polygon class="cls-8" points="352.81 318.88 361.42 327.49 373.48 325.77 367.45 336.1 372.62 346.44 361.42 344.72 352.81 352.98 351.09 342.13 340.63 335.93 351.95 330.94 352.81 318.88"/><polygon class="cls-8" points="735.89 309.25 744.5 317.86 756.55 316.14 750.53 326.47 755.69 336.8 744.5 335.08 735.89 343.34 734.16 332.5 723.7 326.3 735.03 321.3 735.89 309.25"/><rect class="cls-4" x="131.8" y="490.24" width="873.2" height="168.78"/><path class="cls-6" d="M500.16,367.97h136.08s2.23,95.54-58.37,94.83c0,0-81.99,19.25-77.71-94.83Z"/><rect class="cls-7" x="500.19" y="367.11" width="136.06" height="22.39"/><path class="cls-3" d="M505.36,412.75s38.71-45.64,115.35,18.95c0,0,3.95,26.7-64.79,32.72,0,0-37.92-.86-50.56-51.67Z"/><path class="cls-5" d="M162.96,400.26S16,440.75,13,543.75c0,0,4.95,51.77,122.98,27.88"/><line class="cls-5" x1="456.78" y1="689.01" x2="456.78" y2="892.45"/><line class="cls-5" x1="683.43" y1="688.77" x2="683.43" y2="892.21"/><ellipse class="cls-6" cx="440.5" cy="901.75" rx="36.5" ry="18"/><ellipse class="cls-6" cx="698.5" cy="901.75" rx="36.5" ry="18"/><ellipse class="cls-6" cx="156.5" cy="574.25" rx="21.5" ry="11.5"/><ellipse class="cls-6" cx="146.5" cy="552.75" rx="5.5" ry="10"/><path class="cls-5" d="M997.21,343.75s119.35,51.3,121.79,181.79c0,0-4.02,65.59-99.87,35.33"/><ellipse class="cls-6" cx="1002.46" cy="564.18" rx="17.46" ry="14.57"/><ellipse class="cls-6" cx="1010.58" cy="536.94" rx="4.47" ry="12.67"/></g><g><path d="M295.45,548.67v-8.94h20.51v18.31c-3.93,2.68-7.4,4.5-10.42,5.46s-6.6,1.45-10.74,1.45c-5.1,0-9.25-.87-12.47-2.61s-5.7-4.33-7.47-7.76-2.65-7.38-2.65-11.84c0-4.69,.97-8.76,2.9-12.23s4.76-6.1,8.5-7.9c2.91-1.39,6.83-2.08,11.75-2.08s8.29,.43,10.65,1.29,4.31,2.19,5.86,4,2.72,4.1,3.5,6.87l-12.8,2.29c-.53-1.62-1.42-2.86-2.68-3.72s-2.87-1.29-4.82-1.29c-2.91,0-5.23,1.01-6.96,3.03s-2.59,5.22-2.59,9.59c0,4.65,.87,7.97,2.62,9.96s4.19,2.99,7.31,2.99c1.48,0,2.9-.21,4.25-.64s2.89-1.16,4.63-2.2v-4.04h-8.88Z"/><path d="M324.01,564.22v-42.95h22.12c4.1,0,7.24,.35,9.4,1.05s3.92,2.01,5.24,3.91c1.33,1.9,1.99,4.22,1.99,6.96,0,2.38-.51,4.44-1.53,6.17-1.02,1.73-2.41,3.13-4.19,4.2-1.13,.68-2.69,1.25-4.66,1.7,1.58,.53,2.73,1.06,3.45,1.58,.49,.35,1.2,1.1,2.12,2.26,.93,1.15,1.55,2.04,1.86,2.67l6.43,12.45h-15l-7.09-13.12c-.9-1.7-1.7-2.8-2.4-3.31-.96-.66-2.04-1-3.25-1h-1.17v17.43h-13.33Zm13.33-25.55h5.6c.6,0,1.78-.2,3.52-.59,.88-.18,1.6-.62,2.15-1.35s.84-1.55,.84-2.49c0-1.39-.44-2.45-1.32-3.19s-2.53-1.11-4.95-1.11h-5.83v8.73Z"/><path d="M397.43,521.27h13.24v25.59c0,2.54-.4,4.93-1.19,7.19-.79,2.25-2.03,4.23-3.72,5.92s-3.46,2.87-5.32,3.56c-2.58,.96-5.67,1.43-9.29,1.43-2.09,0-4.37-.15-6.84-.44s-4.54-.87-6.2-1.74c-1.66-.87-3.18-2.1-4.56-3.7s-2.32-3.25-2.83-4.95c-.82-2.73-1.23-5.15-1.23-7.26v-25.59h13.24v26.2c0,2.34,.65,4.17,1.95,5.49s3.1,1.98,5.41,1.98,4.08-.65,5.38-1.95,1.95-3.14,1.95-5.52v-26.2Z"/><path d="M419.55,521.27h12.39l16.17,23.76v-23.76h12.51v42.95h-12.51l-16.08-23.58v23.58h-12.48v-42.95Z"/><path d="M469.62,521.27h19.72c3.89,0,7.03,.53,9.42,1.58s4.37,2.57,5.93,4.54c1.56,1.97,2.7,4.27,3.4,6.88s1.05,5.39,1.05,8.32c0,4.59-.52,8.15-1.57,10.68s-2.49,4.65-4.35,6.36c-1.86,1.71-3.85,2.85-5.98,3.41-2.91,.78-5.55,1.17-7.91,1.17h-19.72v-42.95Zm13.27,9.73v23.47h3.25c2.77,0,4.75-.31,5.92-.92s2.09-1.69,2.75-3.22c.66-1.53,1-4.02,1-7.46,0-4.55-.74-7.67-2.23-9.35-1.48-1.68-3.95-2.52-7.38-2.52h-3.31Z"/><path d="M516.11,521.27h13.27v32.37h20.71v10.58h-33.98v-42.95Z"/><path d="M568.02,521.27h41.02v9.17h-18.11v6.83h16.46v8.76h-16.46v8.47h18.66v9.73h-31.14v-7.71h-12.75l-2.84,7.71h-13.36l18.52-42.95Zm7.47,8.7l-6.18,16.76h9.14v-16.76h-2.96Z"/><path d="M637.72,548.67v-8.94h20.51v18.31c-3.93,2.68-7.4,4.5-10.42,5.46s-6.6,1.45-10.74,1.45c-5.1,0-9.25-.87-12.47-2.61s-5.7-4.33-7.47-7.76-2.65-7.38-2.65-11.84c0-4.69,.97-8.76,2.9-12.23s4.76-6.1,8.5-7.9c2.91-1.39,6.83-2.08,11.75-2.08s8.29,.43,10.65,1.29,4.31,2.19,5.86,4,2.72,4.1,3.5,6.87l-12.8,2.29c-.53-1.62-1.42-2.86-2.68-3.72s-2.87-1.29-4.82-1.29c-2.91,0-5.23,1.01-6.96,3.03s-2.59,5.22-2.59,9.59c0,4.65,.87,7.97,2.62,9.96s4.19,2.99,7.31,2.99c1.48,0,2.9-.21,4.25-.64s2.89-1.16,4.63-2.2v-4.04h-8.88Z"/><path d="M687.7,548.67v-8.94h20.51v18.31c-3.93,2.68-7.4,4.5-10.42,5.46s-6.6,1.45-10.74,1.45c-5.1,0-9.25-.87-12.47-2.61s-5.7-4.33-7.47-7.76-2.65-7.38-2.65-11.84c0-4.69,.97-8.76,2.9-12.23s4.76-6.1,8.5-7.9c2.91-1.39,6.83-2.08,11.75-2.08s8.29,.43,10.65,1.29,4.31,2.19,5.86,4,2.72,4.1,3.5,6.87l-12.8,2.29c-.53-1.62-1.42-2.86-2.68-3.72s-2.87-1.29-4.82-1.29c-2.91,0-5.23,1.01-6.96,3.03s-2.59,5.22-2.59,9.59c0,4.65,.87,7.97,2.62,9.96s4.19,2.99,7.31,2.99c1.48,0,2.9-.21,4.25-.64s2.89-1.16,4.63-2.2v-4.04h-8.88Z"/><path d="M716.06,521.27h35.57v9.17h-22.27v6.83h20.65v8.76h-20.65v8.47h22.91v9.73h-36.21v-42.95Z"/><path d="M759.51,521.27h12.39l16.17,23.76v-23.76h12.51v42.95h-12.51l-16.08-23.58v23.58h-12.48v-42.95Z"/><path d="M809.37,521.27h35.57v9.17h-22.27v6.83h20.65v8.76h-20.65v8.47h22.91v9.73h-36.21v-42.95Z"/><path d="M493.87,593.27h12.61l4.54,24.04,6.64-24.04h12.56l6.66,24.01,4.54-24.01h12.54l-9.47,42.95h-13.01l-7.53-27.04-7.5,27.04h-13.01l-9.55-42.95Z"/><path d="M558.27,593.27h35.57v9.17h-22.27v6.83h20.65v8.76h-20.65v8.47h22.91v9.73h-36.21v-42.95Z"/><path d="M601.66,593.27h24.84c4.14,0,7.32,1.03,9.54,3.08s3.33,4.59,3.33,7.62c0,2.54-.79,4.72-2.37,6.53-1.05,1.21-2.6,2.17-4.63,2.87,3.09,.74,5.36,2.02,6.81,3.82s2.18,4.08,2.18,6.81c0,2.23-.52,4.23-1.55,6.01-1.04,1.78-2.45,3.18-4.25,4.22-1.11,.64-2.79,1.11-5.04,1.41-2.99,.39-4.97,.59-5.95,.59h-22.91v-42.95Zm13.39,16.85h5.77c2.07,0,3.51-.36,4.32-1.07s1.22-1.74,1.22-3.09c0-1.25-.41-2.23-1.22-2.93s-2.22-1.05-4.23-1.05h-5.86v8.14Zm0,16.88h6.77c2.29,0,3.9-.41,4.83-1.22s1.41-1.9,1.41-3.27c0-1.27-.46-2.29-1.39-3.06s-2.55-1.16-4.88-1.16h-6.74v8.7Z"/></g></svg>