<?xml version="1.0" encoding="UTF-8"?>
<svg id="Layer_2" data-name="Layer 2" xmlns="http://www.w3.org/2000/svg" viewBox="0 0 1138 938.5">
  <defs>
    <style>
      .cls-1, .cls-2, .cls-3, .cls-4, .cls-5, .cls-6, .cls-7 {
        stroke: #000;
        stroke-miterlimit: 10;
      }

      .cls-8 {
        letter-spacing: -.02em;
      }

      .cls-9, .cls-4, .cls-7 {
        fill: #fff;
      }

      .cls-10 {
        fill: #63d6e3;
      }

      .cls-11 {
        fill: #0a1c60;
      }

      .cls-12 {
        fill: #92f8ff;
      }

      .cls-2 {
        fill: #cc3a49;
      }

      .cls-2, .cls-3, .cls-4, .cls-5, .cls-6 {
        stroke-width: 10px;
      }

      .cls-13 {
        font-family: Arial-Black, 'Arial Black';
        font-size: 60px;
      }

      .cls-3 {
        fill: #ff1d3e;
      }

      .cls-5 {
        fill: none;
      }

      .cls-7 {
        stroke-width: 6px;
      }
    </style>
  </defs>
  <g>
    <path class="cls-2" d="M563.06,166.74S628.44,16.05,791.66,16.05c0,0,153.08-6.03,208.96,150.7,0,0,74.82,160.17-144.77,367.71,0,0-281.59,243.73-292.79,252.33,0,0-91.28-93.88-240.26-204.97,0,0-257.48-200.65-187.73-418.51,0,0,34.47-126.65,207.55-147.29,0,0,157.57-10.3,220.44,150.73Z"/>
    <path class="cls-1" d="M902.17,278.41s56.93-29.3,44.19-133.75c0,0-4.31,57.32-44.19,66.87,0,0,30.18-38.85,13.62-77.06,0,0-2.55,46.2-38.21,52.4,0,0,8.92-10.8,5.1-32.23,0,0-1.58,15.38-29.45,18.63,0,0,18.77,88.59,48.95,105.15Z"/>
    <path class="cls-1" d="M228.91,294.71s-50.16-29.3-38.94-133.75c0,0,3.8,57.32,38.94,66.87,0,0-26.59-38.85-12-77.06,0,0,2.24,46.2,33.67,52.4,0,0-7.86-10.8-4.49-32.23,0,0,1.39,15.38,25.95,18.63,0,0-16.54,88.59-43.13,105.15Z"/>
    <ellipse class="cls-9" cx="766.16" cy="271.95" rx="133.91" ry="128.31"/>
    <ellipse class="cls-9" cx="364.01" cy="277.98" rx="133.91" ry="128.31"/>
    <ellipse class="cls-10" cx="375.33" cy="269.47" rx="113.26" ry="108.53"/>
    <ellipse class="cls-10" cx="752.57" cy="264.29" rx="113.26" ry="108.53"/>
    <ellipse class="cls-12" cx="376.77" cy="278.05" rx="100.67" ry="96.46"/>
    <ellipse class="cls-12" cx="749" cy="271.58" rx="100.67" ry="96.46"/>
    <ellipse class="cls-11" cx="375.71" cy="294.36" rx="71.83" ry="77.91"/>
    <ellipse class="cls-11" cx="749.25" cy="286.64" rx="71.83" ry="77.91"/>
    <circle class="cls-9" cx="326.12" cy="247.41" r="31"/>
    <ellipse class="cls-9" cx="707.22" cy="236.35" rx="33.1" ry="33.45"/>
    <circle class="cls-9" cx="409.22" cy="277.98" r="16.79"/>
    <circle class="cls-9" cx="782.95" cy="269.37" r="16.79"/>
    <polygon class="cls-9" points="352.81 318.88 361.42 327.49 373.48 325.77 367.45 336.1 372.62 346.44 361.42 344.72 352.81 352.98 351.09 342.13 340.63 335.93 351.95 330.94 352.81 318.88"/>
    <polygon class="cls-9" points="735.89 309.25 744.5 317.86 756.55 316.14 750.53 326.47 755.69 336.8 744.5 335.08 735.89 343.34 734.16 332.5 723.7 326.3 735.03 321.3 735.89 309.25"/>
    <rect class="cls-4" x="131.8" y="490.24" width="873.2" height="168.78"/>
    <path class="cls-6" d="M500.16,367.97h136.08s2.23,95.54-58.37,94.83c0,0-81.99,19.25-77.71-94.83Z"/>
    <rect class="cls-7" x="500.19" y="367.11" width="136.06" height="22.39"/>
    <path class="cls-3" d="M505.36,412.75s38.71-45.64,115.35,18.95c0,0,3.95,26.7-64.79,32.72,0,0-37.92-.86-50.56-51.67Z"/>
    <path class="cls-5" d="M162.96,400.26S16,440.75,13,543.75c0,0,4.95,51.77,122.98,27.88"/>
    <line class="cls-5" x1="456.78" y1="689.01" x2="456.78" y2="892.45"/>
    <line class="cls-5" x1="683.43" y1="688.77" x2="683.43" y2="892.21"/>
    <ellipse class="cls-6" cx="440.5" cy="901.75" rx="36.5" ry="18"/>
    <ellipse class="cls-6" cx="698.5" cy="901.75" rx="36.5" ry="18"/>
    <ellipse class="cls-6" cx="156.5" cy="574.25" rx="21.5" ry="11.5"/>
    <ellipse class="cls-6" cx="146.5" cy="552.75" rx="5.5" ry="10"/>
    <path class="cls-5" d="M997.21,343.75s119.35,51.3,121.79,181.79c0,0-4.02,65.59-99.87,35.33"/>
    <ellipse class="cls-6" cx="1002.46" cy="564.18" rx="17.46" ry="14.57"/>
    <ellipse class="cls-6" cx="1010.58" cy="536.94" rx="4.47" ry="12.67"/>
  </g>
  <text class="cls-13" transform="translate(246.12 564.22)"><tspan x="0" y="0">G</tspan><tspan class="cls-8" x="49.98" y="0">R</tspan><tspan x="95.62" y="0">UNDLÆGGENDE </tspan><tspan x="247.78" y="72">WEB</tspan></text>
</svg>